<svg width="433" height="390" viewBox="0 0 433 390" fill="none" xmlns="http://www.w3.org/2000/svg">
<g opacity="0.95" clip-path="url(#clip0_18_11)">
<path opacity="0.5" d="M19.3512 248.24L123.576 187.883C129.238 184.603 139.135 184.999 145.683 188.768L364.421 314.659C370.969 318.428 371.688 324.141 366.026 327.42L261.801 387.778C256.14 391.058 246.243 390.661 239.694 386.893L20.9567 261.001C14.4094 257.233 13.6908 251.52 19.3512 248.24Z" fill="#EBEBEB"/>
<path d="M264.833 365.424L373.301 302.606C376.865 300.542 378.525 297.761 378.407 294.865L378.431 294.873L378.387 279.133L372.352 286.2C371.961 285.941 371.567 285.684 371.14 285.438L149.252 157.733C140.443 152.663 127.127 152.129 119.51 156.541L12.5668 218.475C10.4055 216.103 5.86116 211.1 5.86116 211.1L5.9111 226.496C5.7503 229.968 8.2222 233.666 13.196 236.528L235.091 364.23C243.901 369.3 257.217 369.834 264.833 365.424Z" fill="#2E3035"/>
<path d="M323.486 326.885L317.239 330.493C316.409 330.972 315.736 330.462 315.736 329.357C315.745 328.794 315.885 328.241 316.146 327.743C316.407 327.244 316.781 326.814 317.239 326.486L323.486 322.879C324.317 322.4 324.989 322.908 324.989 324.016C324.98 324.578 324.84 325.131 324.579 325.629C324.318 326.128 323.943 326.558 323.486 326.885Z" fill="#EBEBEB"/>
<path d="M149.252 157.733C140.444 152.663 127.127 152.129 119.51 156.541L12.5668 218.474C10.403 216.104 5.86365 211.1 5.86365 211.1L5.91359 226.496C5.75279 229.968 8.22468 233.665 13.1985 236.528L235.092 364.23C239.686 366.877 245.507 368.275 251.107 368.39L250.896 216.232L149.252 157.733Z" fill="#2E3035"/>
<path d="M10.9977 203.531L119.462 140.716C127.078 136.304 140.395 136.838 149.205 141.908L371.095 269.612C379.905 274.682 380.872 282.368 373.255 286.782L264.788 349.596C257.172 354.008 243.855 353.475 235.047 348.405L13.1565 220.7C4.34456 215.63 3.38077 207.943 10.9977 203.531Z" fill="#EBEBEB"/>
<path d="M264.871 351.276L373.338 288.462C377.265 286.186 378.893 283.039 378.356 279.83C378.164 282.437 376.493 284.906 373.255 286.782L264.788 349.596C257.172 354.008 243.855 353.475 235.047 348.405L13.158 220.7C8.89136 218.245 6.48288 215.176 5.97951 212.163C5.71933 215.687 8.17675 219.465 13.2409 222.379L235.13 350.085C243.938 355.155 257.252 355.688 264.871 351.276Z" fill="#2E3035"/>
<path d="M19.3512 206.007L123.576 145.649C129.238 142.37 139.135 142.766 145.683 146.535L364.421 272.426C370.969 276.194 371.688 281.907 366.026 285.187L261.801 345.545C256.14 348.824 246.243 348.428 239.694 344.659L20.9567 218.768C14.4094 215 13.6908 209.286 19.3512 206.007Z" fill="#173D7A"/>
<path d="M235.547 314.196L309.093 271.73L304.399 269.02L230.853 311.484L235.547 314.196Z" fill="#2E3035"/>
<path d="M286.719 301.816L323.959 280.315L319.265 277.605L282.025 299.106L286.719 301.816Z" fill="#2E3035"/>
<path d="M268.647 312.251L280.725 305.277L276.031 302.567L263.953 309.54L268.647 312.251Z" fill="#FFCE1F"/>
<path d="M250.413 322.779L262.491 315.805L257.797 313.095L245.719 320.069L250.413 322.779Z" fill="#EBEBEB"/>
<path d="M286.303 293.474L316.526 276.023L311.832 273.313L281.609 290.763L286.303 293.474Z" fill="#EBEBEB"/>
<path d="M249.41 314.775L279.633 297.324L274.939 294.614L244.715 312.064L249.41 314.775Z" fill="#2E3035"/>
<path d="M271.786 277.473C272.634 277.903 273.572 278.128 274.524 278.128C275.475 278.128 276.413 277.903 277.262 277.473C278.775 276.599 278.775 275.183 277.262 274.31C276.413 273.88 275.475 273.655 274.524 273.655C273.572 273.655 272.634 273.88 271.786 274.31C270.272 275.183 270.272 276.599 271.786 277.473Z" fill="#FFCE1F"/>
<path d="M263.602 282.198C264.45 282.628 265.388 282.852 266.34 282.852C267.291 282.852 268.229 282.628 269.078 282.198C270.591 281.325 270.591 279.909 269.078 279.035C268.229 278.605 267.291 278.38 266.34 278.38C265.388 278.38 264.45 278.605 263.602 279.035C262.089 279.909 262.089 281.325 263.602 282.198Z" fill="#EBEBEB"/>
<path d="M255.419 286.923C256.267 287.354 257.205 287.578 258.157 287.578C259.109 287.578 260.047 287.354 260.896 286.923C262.408 286.049 262.408 284.634 260.896 283.76C260.047 283.33 259.109 283.105 258.157 283.105C257.205 283.105 256.267 283.33 255.419 283.76C253.905 284.633 253.905 286.049 255.419 286.923Z" fill="#2E3035"/>
<path d="M247.233 291.647C248.082 292.078 249.02 292.302 249.971 292.302C250.923 292.302 251.861 292.078 252.709 291.647C254.222 290.774 254.222 289.359 252.709 288.486C251.861 288.055 250.922 287.831 249.971 287.831C249.019 287.831 248.081 288.055 247.232 288.486C245.723 289.359 245.722 290.774 247.233 291.647Z" fill="#FFCE1F"/>
<path d="M239.052 296.373C239.9 296.803 240.838 297.028 241.79 297.028C242.742 297.028 243.68 296.803 244.529 296.373C246.04 295.499 246.04 294.083 244.529 293.21C243.68 292.779 242.742 292.555 241.79 292.555C240.838 292.555 239.9 292.779 239.052 293.21C237.538 294.083 237.538 295.499 239.052 296.373Z" fill="#EBEBEB"/>
<path d="M74.5631 206.472L86.9476 199.322L82.1346 196.544L69.7501 203.694L74.5631 206.472Z" fill="#FFCE1F"/>
<path d="M57.3202 216.428L69.7047 209.278L64.8917 206.499L52.5072 213.649L57.3202 216.428Z" fill="#2E3035"/>
<path d="M129.874 174.237L142.258 167.087L137.445 164.309L125.061 171.459L129.874 174.237Z" fill="#2E3035"/>
<path d="M77.3236 213.678L94.5665 203.723L89.7536 200.943L72.5107 210.899L77.3236 213.678Z" fill="#2E3035"/>
<path d="M64.9406 220.828L72.5066 216.459L67.6937 213.68L60.1277 218.049L64.9406 220.828Z" fill="#EBEBEB"/>
<path opacity="0.5" d="M20.9583 346.658L41.917 334.557L20.9587 322.453L1.52588e-05 334.554L20.9583 346.658Z" fill="#EBEBEB"/>
<path d="M-1.52588e-05 319.193L20.9582 331.294V307.093L-1.52588e-05 294.992V319.193Z" fill="#EBEBEB"/>
<path d="M20.9582 307.093L41.9165 294.992L20.9587 282.892L0.000991821 294.993L20.9582 307.093Z" fill="#173D7A"/>
<path d="M20.9582 331.294L41.9165 319.193V294.992L20.9582 307.093V331.294Z" fill="#FFCE1F"/>
<path d="M28.5058 318.22L34.368 314.836V308.067L28.5058 311.451V318.22Z" fill="#EBEBEB"/>
<path opacity="0.5" d="M383.199 250.447L405.019 237.849L383.199 225.251L361.38 237.849L383.199 250.447Z" fill="#EBEBEB"/>
<path d="M361.38 221.854L383.199 234.452V209.257L361.38 196.659V221.854Z" fill="#173D7A"/>
<path d="M383.199 209.257L405.019 196.659L383.2 184.062L361.381 196.66L383.199 209.257Z" fill="#EBEBEB"/>
<path d="M383.199 234.452L405.018 221.854V196.659L383.199 209.257V234.452Z" fill="#FFCE1F"/>
<path d="M391.057 220.841L397.159 217.318V210.271L391.057 213.794V220.841Z" fill="#EBEBEB"/>
<path d="M207.573 239.164C207.573 254.924 190.884 267.7 170.297 267.7C149.711 267.7 133.022 254.924 133.022 239.164C133.022 223.403 149.711 210.627 170.297 210.627C190.884 210.627 207.573 223.403 207.573 239.164Z" fill="#092E63"/>
<path d="M247.041 239.164C247.041 254.924 230.352 267.7 209.765 267.7C189.179 267.7 172.49 254.924 172.49 239.164C172.49 223.403 189.179 210.627 209.765 210.627C230.352 210.627 247.041 223.403 247.041 239.164Z" fill="#092E63"/>
<g clip-path="url(#clip1_18_11)">
<path d="M272.873 55.8C284.99 70.1921 290.187 88.9106 287.193 107.177C286.063 113.963 283.945 120.749 280.923 127.309L240.845 213.974C238.896 218.215 234.941 220.732 230.31 220.732C225.848 220.732 222.034 218.413 220.001 214.483L207.461 167.462C205.314 159.346 198.253 153.917 189.921 153.917C181.617 153.917 174.557 159.346 172.41 167.462L159.87 214.483C157.836 218.413 154.023 220.732 149.561 220.732C144.929 220.732 140.975 218.216 139.026 213.974L98.9482 127.309C94.7396 118.233 92.4242 108.676 92.0846 98.9207C91.435 81.7011 97.7619 65.244 109.85 52.6057C122.363 39.5143 139.874 32.0213 157.893 32.0213C167.468 32.0213 176.618 35.4991 184.47 42.0305C193.622 50.2025 218.532 72.0875 226.752 76.074C227.769 76.5826 228.842 76.8095 229.915 76.8095C232.655 76.8095 235.252 75.2541 236.524 72.5962C238.275 68.9201 236.75 64.5094 233.078 62.7278C228.926 60.7203 214.493 48.7314 201.727 37.591C207.998 33.9437 214.889 32.0204 222.035 32.0204C241.664 32.0204 260.192 40.7011 272.873 55.8ZM156.819 76.9791C159.672 74.0951 159.672 69.4296 156.819 66.5456C153.938 63.6329 149.306 63.6329 146.425 66.5456L139.703 73.3317L132.953 66.5448C130.072 63.6321 125.44 63.6321 122.587 66.5448C119.707 69.4287 119.707 74.0942 122.587 76.9782L129.31 83.793L122.587 90.6078C119.707 93.4918 119.707 98.1573 122.587 101.041C124 102.484 125.892 103.218 127.756 103.218C129.648 103.218 131.512 102.483 132.953 101.041L139.704 94.2552L146.426 101.041C147.866 102.484 149.758 103.218 151.623 103.218C153.487 103.218 155.379 102.483 156.82 101.041C159.673 98.1573 159.673 93.4918 156.82 90.6078L150.069 83.793L156.819 76.9791Z" fill="#EBEBEB"/>
<path d="M284.086 46.243C298.971 63.972 305.382 87.0448 301.654 109.609C300.298 117.724 297.813 125.782 294.226 133.558L254.148 220.223C249.77 229.667 240.647 235.52 230.31 235.52C219.972 235.52 210.821 229.667 206.472 220.223C206.274 219.827 206.133 219.431 206.02 219.007L193.311 171.306C192.69 169.044 190.938 168.705 189.921 168.705C188.933 168.705 187.181 169.044 186.56 171.306L173.851 219.007C173.738 219.431 173.596 219.827 173.399 220.223C169.05 229.667 159.898 235.52 149.561 235.52C139.223 235.52 130.101 229.667 125.723 220.223L85.6439 133.558C80.6163 122.672 77.8484 111.192 77.4246 99.458C76.6334 78.1946 84.4011 57.9215 99.2852 42.3417C114.538 26.3933 135.918 17.2327 157.892 17.2327C169.36 17.2327 180.318 20.7958 189.921 27.6097C199.553 20.7949 210.511 17.2327 221.978 17.2327C245.985 17.2327 268.58 27.8079 284.086 46.243ZM287.193 107.177C290.187 88.9106 284.99 70.1921 272.873 55.8C260.192 40.7011 241.664 32.0204 222.034 32.0204C214.888 32.0204 207.997 33.9428 201.726 37.591C214.493 48.7314 228.926 60.7203 233.077 62.7278C236.749 64.5094 238.274 68.9201 236.523 72.5962C235.252 75.2541 232.654 76.8095 229.914 76.8095C228.84 76.8095 227.767 76.5835 226.751 76.074C218.532 72.0875 193.621 50.2016 184.47 42.0305C176.618 35.4991 167.466 32.0213 157.892 32.0213C139.873 32.0213 122.362 39.5143 109.849 52.6057C97.7602 65.2441 91.4341 81.7011 92.0837 98.9207C92.4225 108.676 94.7387 118.233 98.9474 127.309L139.025 213.974C140.974 218.215 144.928 220.732 149.56 220.732C154.022 220.732 157.836 218.413 159.869 214.483L172.409 167.462C174.556 159.346 181.617 153.917 189.92 153.917C198.252 153.917 205.313 159.346 207.46 167.462L220 214.483C222.034 218.413 225.847 220.732 230.309 220.732C234.941 220.732 238.895 218.216 240.844 213.974L280.922 127.309C283.945 120.749 286.063 113.963 287.193 107.177Z" fill="#2E3035"/>
<path d="M156.819 66.5448C159.672 69.4287 159.672 74.0942 156.819 76.9782L150.068 83.793L156.819 90.6078C159.672 93.4918 159.672 98.1573 156.819 101.041C155.378 102.484 153.486 103.218 151.622 103.218C149.758 103.218 147.866 102.483 146.425 101.041L139.703 94.2552L132.953 101.041C131.512 102.484 129.648 103.218 127.756 103.218C125.892 103.218 124 102.483 122.588 101.041C119.707 98.1573 119.707 93.4918 122.588 90.6078L129.31 83.793L122.588 76.9782C119.707 74.0942 119.707 69.4287 122.588 66.5448C125.44 63.6321 130.072 63.6321 132.953 66.5448L139.704 73.3309L146.426 66.5448C149.306 63.633 153.938 63.633 156.819 66.5448Z" fill="#FFCE1F"/>
<path d="M206.231 60.8446C197.743 53.7898 189.095 46.1586 184.47 42.0305C176.618 35.4991 167.466 32.0213 157.892 32.0213C139.873 32.0213 122.362 39.5143 109.849 52.6056C97.7602 65.244 91.4341 81.7011 92.0838 98.9207C92.4225 108.676 94.7387 118.233 98.9474 127.309L139.025 213.974C140.974 218.215 144.928 220.732 149.56 220.732C154.022 220.732 157.836 218.413 159.869 214.483L166.891 188.15C154.963 205.313 144.349 192.428 144.349 192.428C128.755 155.288 129.464 121.564 132.103 101.739C130.812 102.704 129.298 103.218 127.756 103.218C125.892 103.218 124 102.483 122.588 101.041C119.707 98.1573 119.707 93.4918 122.588 90.6078L129.31 83.793L122.588 76.9782C119.707 74.0942 119.707 69.4287 122.588 66.5448C125.44 63.6321 130.072 63.6321 132.953 66.5448L139.704 73.3308L139.74 73.2943C152.418 51.7736 186.167 56.007 206.231 60.8446Z" fill="#A8A8A8"/>
<path d="M211.259 181.695L220.004 214.48C222.038 218.41 225.85 220.729 230.312 220.729C234.944 220.729 238.898 218.212 240.847 213.97L241.254 213.094C230.428 215.812 218.416 196.059 211.259 181.695Z" fill="#A8A8A8"/>
<path d="M176.38 36.6581L176.31 37.2433L181.959 40.102C180.157 38.7926 178.293 37.6528 176.38 36.6581Z" fill="#A8A8A8"/>
<path d="M272.873 55.8C260.192 40.7011 241.664 32.0204 222.034 32.0204C214.888 32.0204 207.997 33.9428 201.726 37.591C212.499 46.9898 224.428 56.9686 230.397 61.0741C244.651 63.0052 273.952 71.3607 287.193 107.18C290.187 88.9115 284.99 70.193 272.873 55.8Z" fill="#A8A8A8"/>
</g>
</g>
<defs>
<clipPath id="clip0_18_11">
<rect width="433" height="390" fill="white"/>
</clipPath>
<clipPath id="clip1_18_11">
<rect width="225.323" height="225.575" fill="white" transform="translate(77.3699 13.5889)"/>
</clipPath>
</defs>
</svg>
