<svg width="60" height="60" viewBox="0 0 60 60" fill="none" xmlns="http://www.w3.org/2000/svg">
<path d="M29.9858 5C25.0413 5 20.2078 6.46622 16.0965 9.21326C11.9853 11.9603 8.78099 15.8648 6.8888 20.4329C4.99661 25.0011 4.50153 30.0277 5.46616 34.8773C6.43079 39.7268 8.81181 44.1814 12.3081 47.6777C15.8044 51.174 20.259 53.555 25.1085 54.5196C29.9581 55.4843 34.9847 54.9892 39.5529 53.097C44.121 51.2048 48.0255 48.0005 50.7725 43.8893C53.5196 39.778 54.9858 34.9445 54.9858 30C54.9861 26.7169 54.3396 23.4659 53.0833 20.4326C51.8271 17.3993 49.9856 14.6432 47.6641 12.3217C45.3425 10.0002 42.5865 8.15873 39.5532 6.90246C36.5199 5.64619 33.2689 4.99973 29.9858 5V5ZM37.9346 42.8812C37.841 43.1145 37.6986 43.3251 37.517 43.4989C37.3354 43.6727 37.1187 43.8057 36.8814 43.8889C36.6442 43.9721 36.392 44.0037 36.1416 43.9814C35.8912 43.9592 35.6484 43.8837 35.4296 43.7599L28.6429 38.4865L24.2871 42.505C24.186 42.5797 24.0678 42.6277 23.9433 42.6447C23.8188 42.6618 23.692 42.6472 23.5746 42.6023L24.4096 35.1312L24.4363 35.1524L24.4534 35.0049C24.4534 35.0049 36.6659 23.8861 37.1634 23.4124C37.6671 22.9399 37.5009 22.8374 37.5009 22.8374C37.5296 22.2611 36.5971 22.8374 36.5971 22.8374L20.4158 33.2475L13.6771 30.9525C13.6771 30.9525 12.6421 30.5812 12.5446 29.765C12.4421 28.955 13.7108 28.515 13.7108 28.515L40.5033 17.8712C40.5033 17.8712 42.7058 16.8899 42.7058 18.515L37.9346 42.8812Z" fill="#2E3035"/>
</svg>
