<svg width="110" height="110" viewBox="0 0 110 110" fill="none" xmlns="http://www.w3.org/2000/svg">
<path d="M110 21.0824L84.7 0L77.605 8.35651L102.905 29.4389L110 21.0824ZM32.34 8.35651L25.3 0L0 21.0278L7.095 29.3843L32.34 8.35651ZM57.75 33.5353H49.5V66.3059L75.625 81.8719L79.75 75.1539L57.75 62.2095V33.5353ZM55 11.6882C27.665 11.6882 5.5 33.6991 5.5 60.8441C5.5 87.9891 27.61 110 55 110C82.335 110 104.5 87.9891 104.5 60.8441C104.5 33.6991 82.335 11.6882 55 11.6882ZM55 99.0765C33.715 99.0765 16.5 81.9811 16.5 60.8441C16.5 39.7071 33.715 22.6117 55 22.6117C76.285 22.6117 93.5 39.7071 93.5 60.8441C93.5 81.9811 76.285 99.0765 55 99.0765Z" fill="#EBEBEB" fill-opacity="0.6"/>
</svg>
