<svg width="138" height="110" viewBox="0 0 138 110" fill="none" xmlns="http://www.w3.org/2000/svg">
<path d="M106.562 69.1824H101.585L99.8213 67.4843C105.995 60.3145 109.712 51.0063 109.712 40.8805C109.712 18.3019 91.3792 0 68.7617 0C47.2154 0 29.575 16.6038 28 37.7358H40.7262C42.3013 23.5849 54.1455 12.5786 68.7617 12.5786C84.449 12.5786 97.1123 25.2201 97.1123 40.8805C97.1123 56.5409 84.449 69.1824 68.7617 69.1824C67.6907 69.1824 66.6827 68.9937 65.6117 68.8679V81.5723C66.6827 81.6981 67.6907 81.761 68.7617 81.761C78.9049 81.761 88.2291 78.0503 95.4112 71.8868L97.1123 73.6478V78.6163L128.613 110L138 100.629L106.562 69.1824Z" fill="#EBEBEB" fill-opacity="0.6"/>
<path d="M49.8597 38C41.7418 38 40.22 45.7131 32.0011 45.7131C23.7834 45.7131 22.2614 38 14.1426 38C4.20068 38 0 47.8397 0 57.4638C0 67.0878 8.42958 102 18.3702 102C22.5741 102 23.5399 79.6673 32 79.6673C40.4601 79.6673 41.4257 102 45.6298 102C55.5715 102 64 67.089 64 57.4638C64 47.8385 59.8004 38 49.8597 38Z" fill="#EBEBEB" fill-opacity="0.6"/>
</svg>
